# xmcd
# Copyright (C) 1995-1998 Ti Kan
#
# Track frame offsets:
#       150
#       13634
#       25864
#       36007
#       45461
#       57392
#       67893
#       78805
#       91709
#       103007
#       115914
#       128509
#       140920
#       152980
#       163870
#       176022
#       188555
#       198615
#       210287
#       222687
#       232717
#       241661
#       254472
#       265524
#       276774
#       292509
#       317215
#
# Disc length: 4682 seconds
#
# Revision: 0
# Processed by: cddbd v1.5.2PL0 Copyright (c) Steve Scherf et al.
# Submitted via: CD-Import v1.0
#
DISCID=6c12481b
DTITLE=Various Artist - Talcum Soul 4
DYEAR=1900
DGENRE=
TTITLE0=Soul Sisters - Good Times Tonight
TTITLE1=Levi Jackson - The Beautiful Day
TTITLE2=Orlons - Spinning Top
TTITLE3=Diplomats - Honest To Goodness
TTITLE4=Sandy Nelson - Nothing's To Good For My Baby
TTITLE5=Dee Irwin - I Only Get This Feeling
TTITLE6=Linda Elliot - Fell In Love With You Baby
TTITLE7=Ernie Andrews - A Fine Young Girl
TTITLE8=Rose St John and The Wonderettes - I Know The Meaning
TTITLE9=Timmy Willis - Mr Soul Satisfactions
TTITLE10=Charlotta Tillman - Baby I'm Serious
TTITLE11=O'jays - Hold On
TTITLE12=Patrice Holloway - Stolen Hours
TTITLE13=Kenny Ballard and The Fabulous Soul Brothers - I'm Losing You
TTITLE14=Kathy and The Calenders - Please Don't Go
TTITLE15=Lenny Curtis - Nothing Can Help You Now
TTITLE16=Irma Thomas - What Are You Trying To Do
TTITLE17=Sandy Phillips - World Without Sunshine
TTITLE18=True Tones - Hee's Got The Nerve
TTITLE19=Chris Towns Unit - Turn To Me
TTITLE20=Honey and The Bees - Help Me (Get Over My Used To Be Lover)
TTITLE21=Clovers - Try My Loving On You
TTITLE22=Bettye Levette - Stand Up Like A Man
TTITLE23=Irma Thomas - Long After Tonight Is All Over
TTITLE24=Kenny Lynch - Movin' Away
TTITLE25=Gene Mcdaniels - Walk With A Winner
TTITLE26=Data Track
EXTD=
EXTT0=
EXTT1=
EXTT2=
EXTT3=
EXTT4=
EXTT5=
EXTT6=
EXTT7=
EXTT8=
EXTT9=
EXTT10=
EXTT11=
EXTT12=
EXTT13=
EXTT14=
EXTT15=
EXTT16=
EXTT17=
EXTT18=
EXTT19=
EXTT20=
EXTT21=
EXTT22=
EXTT23=
EXTT24=
EXTT25=
EXTT26=
PLAYORDER=
